<svg xmlns="http://www.w3.org/2000/svg" width="200" height="100" viewBox="0 0 528.29 104.18"><defs><style>.cls-1,.cls-2{fill:#fd0000;}.cls-2,.cls-4{fill-rule:evenodd;}.cls-3{fill:#343739;}.cls-4,.cls-5{fill:#fff;}</style></defs><title>Asset 1</title><g id="Layer_2" data-name="Layer 2"><g id="Capa_1" data-name="Capa 1"><path class="cls-1" d="M166.29,21V38.32c-8.43-1.43-20.18-3.89-26.43,3.65-2.19,3-2.32,7.69-1.19,11.22,1.32,4.23,5.8,6.57,9.86,7.06l.17-16.41h17.59V76.15c-13.72,2.56-29.78,2.42-39.43-8.76-7.15-7.55-8.52-19.7-5.11-29.41,4-11.29,15.86-18.13,27.37-18.53A75.1,75.1,0,0,1,166.29,21"/><rect class="cls-1" x="171.99" y="20.59" width="17.93" height="55.39"/><path class="cls-1" d="M390.84,22.77c7.63-5.14,20.21-4.42,27.46,1,6.31,5.16,8.22,12.45,8.75,20.14V76H409.12l-.26-34.85c-.36-1.53-.79-3.28-2.38-4.08a5.93,5.93,0,0,0-4.42.16c-1.74,1.2-1.87,3.21-2.12,5.11L399.77,76H381.83l-.25-35c-.28-1.58-1-3.36-2.55-4-1.41-.34-3.38-.55-4.51.51-1.63,1.47-1.76,3.7-1.87,5.87L372.57,76H354.89V40.87c.64-8.52,5.89-17.83,14.62-20.31,6.76-2,15.55-1.75,21.33,2.21"/><rect class="cls-1" x="433.09" y="20.59" width="17.93" height="55.39"/><path class="cls-1" d="M500.83,30.84A30.14,30.14,0,0,1,504,42.92V76H486.13L486,42c-.41-1.59-.81-3.25-2.26-4.41a6.63,6.63,0,0,0-5.18-.6c-2.91,1.17-3.37,4.34-3.61,7.06l0,32H457.14V40.7c1-7.39,4.59-14.89,11.73-18.7,7.33-3.8,18.53-3.67,25.33,1.19a22.52,22.52,0,0,1,6.63,7.65"/><rect class="cls-1" x="510.09" y="20.59" width="17.93" height="55.39"/><path class="cls-2" d="M346.55,32c5.54,7.46,6.84,19.51,2.72,28.05-4.19,9.6-14.18,16.4-24.31,17.26-10.84.74-20.34-3.21-27-11.82-5.89-7.35-7.29-19.08-3.57-27.88,3.91-10.37,14.81-17.62,25.58-18.28,10.82-.48,20.25,3.83,26.61,12.67m-15.22,9.44a11.91,11.91,0,0,1,1.79,10.19A11.76,11.76,0,0,1,325,59.57a12,12,0,0,1-11-2.81A11.65,11.65,0,0,1,310.68,46a11.55,11.55,0,0,1,20.65-4.5"/><path class="cls-2" d="M223.33,38c2.1,2.74,1.63,6.52,1.7,10.11H214c.36-4-.92-9.28,3.4-11,2-.45,4.4-.43,6,.93m16.32-7.48A32.82,32.82,0,0,1,242.88,42c.32,11.23.1,22.68.17,34H225.11V63.9H213.89V76H196l.28-35c.65-8.56,5.93-17.89,14.7-20.39,10.67-2.93,23.35-.77,28.65,9.94"/><path class="cls-1" d="M264.9,48.29a10.85,10.85,0,0,0,1.86,6.21c5.72,6.6,13.55,5.22,23.54,4.15V76.91a98.12,98.12,0,0,1-14.4,1C264.32,77.5,252.12,70.48,248,59a32.51,32.51,0,0,1,0-21.16c4.09-11.49,15.88-18.17,27.47-18.52a81.59,81.59,0,0,1,14.29,1V38.3c-7.72-1.55-16.39-3.18-23,4-1.32,2.47-1.85,3.57-1.86,6"/><path class="cls-3" d="M297.76,103.22h-4.54L291.29,98c0-.14-.09-.21-.23-.21s-.2.07-.25.21L289,103.22h-4.56c-2.09-5.09-2.78-10.91-2.74-17h4.54c0,1.94.23,5.09.31,6.55a45.75,45.75,0,0,0,.51,5.33l.09,0c.16-.78.69-2.82.85-3.45l.86-3.31h4.54l.86,3.31c.16.63.69,2.67.86,3.45l.09,0a50.57,50.57,0,0,0,.51-5.33c.07-1.46.32-4.61.3-6.55h4.47c0,6.11-.65,11.93-2.73,17"/><path class="cls-3" d="M316.21,103.15c-.16-.55-.39-1.55-.65-2.59h-5c-.26,1-.52,2-.68,2.59h-4.65s.62-2.34,2.57-8.78,2.62-8.18,2.62-8.18h5.3s.65,1.67,2.62,8.2,2.57,8.76,2.57,8.76Zm-2.92-11.26c-.09-.25-.14-.25-.25-.25s-.17,0-.26.25c-.23.7-1.09,3.76-1.34,4.8h3.2c-.26-1-1.11-4.1-1.35-4.8"/><path class="cls-3" d="M333.09,90c0,1.53,0,2.61,0,5.3,0,2.36,0,4.73,0,7.83h-4.27c.05-4.91,0-5,0-8.89V90c-2,0-4.33.07-4.33.07V86.24s2.69-.07,5.53-.07,7.39.07,7.39.07v3.82s-2.36,0-4.37,0"/><path class="cls-3" d="M349.1,103.22c-2.8,0-5.21-.07-5.21-.07.07-4.89,0-4.93,0-8.85,0-2.43.05-4.86,0-8,0,0,2.41-.07,5.23-.07s6.26.07,6.26.07v3.82s-4,0-5.19,0h-2.09c0,.42,0,1,0,1.79,0,.19.07.39.41.39h6.42V96.3l-6.39,0c-.35,0-.4.18-.4.37,0,1.27,0,2,0,2.69h2.08c1.23,0,5.19,0,5.19,0v3.82s-3.45.07-6.28.07"/><path class="cls-3" d="M370.55,103.15l-3.06-5.56c-.19-.35-.19-.32-.42-.32,0,1.72,0,2.2.07,5.88h-4.27c.07-4.91,0-5,0-8.89,0-2.44,0-4.89,0-8.07h6.79c3.62,0,5,3,5,5.52A4.85,4.85,0,0,1,372,96.46c-.32.18-.35.32-.16.6l3.71,6.09ZM369.08,90h-2c0,1,0,2.52.05,3.52.55,0,2.11,0,2.11,0,.71,0,1.09-.86,1.09-1.76S369.8,90,369.08,90"/><path class="cls-1" d="M397.5,103.22c-2.8,0-5.21-.07-5.21-.07.07-4.89,0-4.93,0-8.85,0-2.43.05-4.86,0-8,0,0,2.41-.07,5.23-.07s6.26.07,6.26.07v3.82s-4,0-5.19,0h-2.09c0,.42,0,1,0,1.79,0,.19.07.39.42.39h6.41V96.3l-6.39,0c-.35,0-.4.18-.4.37,0,1.27,0,2,0,2.69h2.08c1.23,0,5.19,0,5.19,0v3.82s-3.45.07-6.28.07"/><rect class="cls-3" x="407.83" y="94.24" width="6.75" height="3.08"/><path class="cls-3" d="M434.13,94.24c0,3.91-.09,4,0,8.91h-4.36c0-1.69,0-2.9,0-4.51,0-1.35.16-3.15.16-4.2l-.12,0L427.67,100h-3l-2.16-5.49-.11,0c0,1,.09,2.9.14,4.24,0,1.62.07,2.69.07,4.47h-4.36c.07-4.91,0-5,0-8.91,0-2.44,0-4.87,0-8h4.93l2.78,7.06a.26.26,0,0,0,.26.19c.07,0,.16,0,.23-.21l2.78-7h4.93c0,3.17,0,5.6,0,8"/><path class="cls-3" d="M453.63,102.39a7.24,7.24,0,0,1-5.1,1.55,7.38,7.38,0,0,1-5.16-1.55c-1.83-1.76-2.32-4.73-2.32-7.51s.46-5.7,2.29-7.46c1.21-1.18,3.11-1.57,5.15-1.57s4,.39,5.18,1.57c1.84,1.76,2.3,4.68,2.3,7.46s-.51,5.75-2.34,7.51m-3.24-12a3.85,3.85,0,0,0-3.76,0c-.76.76-1.09,2.38-1.09,4.51s.33,3.73,1.09,4.52a2.87,2.87,0,0,0,1.88.49,2.92,2.92,0,0,0,1.88-.49c.76-.79,1.08-2.41,1.08-4.52s-.32-3.75-1.08-4.51"/><path class="cls-3" d="M470.3,90c0,1.53.05,2.61.05,5.3,0,2.36,0,4.73,0,7.83h-4.26c0-4.91,0-5,0-8.89V90c-2,0-4.33.07-4.33.07V86.24s2.69-.07,5.54-.07,7.39.07,7.39.07v3.82s-2.37,0-4.38,0"/><path class="cls-3" d="M481.12,103.15c.05-4.56,0-4.65,0-8.8,0-2.62,0-5.45,0-8.16h4.26c0,4.57.05,5.12.05,9.3,0,2.52-.05,5,0,7.66Z"/><path class="cls-3" d="M505,102.39a7.24,7.24,0,0,1-5.1,1.55,7.42,7.42,0,0,1-5.17-1.55c-1.83-1.76-2.32-4.73-2.32-7.51s.47-5.7,2.3-7.46c1.2-1.18,3.11-1.57,5.14-1.57A7.39,7.39,0,0,1,505,87.42c1.83,1.76,2.29,4.68,2.29,7.46s-.5,5.75-2.33,7.51m-3.25-12a3.83,3.83,0,0,0-3.75,0c-.77.76-1.09,2.38-1.09,4.51s.32,3.73,1.09,4.52a2.85,2.85,0,0,0,1.88.49,2.88,2.88,0,0,0,1.87-.49c.76-.79,1.09-2.41,1.09-4.52s-.33-3.75-1.09-4.51"/><path class="cls-3" d="M523.47,103.15l-4.61-8.71a.19.19,0,0,0-.37.1c0,.64.09,1.59.09,2.17,0,2.13.12,4.87.12,6.44h-4.29c.07-4.91,0-5,0-8.91,0-1.79,0-2.67,0-3.55s0-1.74,0-4.5h5.16l4.27,8.71c.09.22.34.17.34-.08,0-.66-.06-1.6-.06-2.18,0-2.14-.12-4.87-.12-6.45h4.28c-.07,4.92,0,5,0,8.93v3.54c0,.85,0,1.74,0,4.49Z"/><path class="cls-1" d="M104.15,50.28a52.09,52.09,0,1,0-50.23,53.87,52.11,52.11,0,0,0,50.23-53.87"/><path class="cls-4" d="M92.29,40.4c1.11,3.48,2.35,7,1.84,11-.33,1-1.65,1.08-2.48.65-1.88-1.09-.72-2.54-1.52-6.69-.9-5.58-1.94-11-5.82-15,.67-.84,1.57.13,2.27.43,2.77,2.75,4.25,6.12,5.71,9.6m-8.74-6.26a74.46,74.46,0,0,1,6.69,24.72,1.82,1.82,0,0,1-1.29,2,2.25,2.25,0,0,1-2.7-1.5c-.83-10.58-2.07-21-6.69-30,0-.44.57-.54.87-.33Z"/><path class="cls-5" d="M80.2,22.36s0-.23-.3-.31c-1.55-.33-2.9-.45-5.37-4.12a11.37,11.37,0,0,1-1.29-5.07c-.12-2.08-.74-5.08-2.5-6.25S63.39,7.88,59.27,15a10.2,10.2,0,0,1-4,3.92S52.78,20,47.91,21.74c-3.6,1.29-6.65,2.67-7.9,4.75a4.68,4.68,0,0,0-.26,2.45c-.07,3.51,1.69,9.77,1.69,9.77s3.7,10.41-.72,18.41c-2.48,3.92-4.37,7.39-1.84,12.4A44.26,44.26,0,0,1,42,76c1.57,4.15,4.94,7.67,4.45,8.57-.31.17-1.34-.51-2.26-.64S41.87,83.5,38,85.15c-4.41,1.86-5.61,1-6.33.5s-1.36-1.79-3.13-1c-.56.25-.91.33-3.07,3-.57.79-2.72,1.11-2.72,1.11s-1.86.3-2.11.94.37.67.94.53A9.25,9.25,0,0,1,23.93,90a20.82,20.82,0,0,0,4.91-.7c1.66-.42,3.42-.4,6.5.27s13.89.95,16.22.15c.47-.12,2.25-.47,2-3A37.78,37.78,0,0,0,51.76,76c-1.24-3.77-1.72-5.2-1.9-5.74,0-.12,0-.3.28-.32h.21c2-.13,8.59-.72,11.53-3.29.67-.44,1.56-.94,1.71-.79A1.18,1.18,0,0,1,64,67.34c-.39,1-2,5.33-1.73,8.13a47.57,47.57,0,0,0,.81,6.42c.07.28.13.57.2.86a4,4,0,0,1,0,2l0,0a5.92,5.92,0,0,0-1,3.7c.24,1.51,2.3,1.18,2.77,1.13a13.17,13.17,0,0,1,4.72.43c1.63.62,5,1,5.63,0,.34-.45-.1-1.1-.84-1-1.51.1-3.11-1.2-3.79-1.52s-1.75-1.07-3.33-2c-.65-.59-.79-2.16.15-8.59.17-1.21,2-8.43,2-8.43s.47-2.08.92-3.5.86-6-2.26-6.65-4.61-1.09-14.16,1.19c-1.42.18-1.47-1.73-1-3.07a9.43,9.43,0,0,1,2.26-3.92c2.17-.17,3.5-1.17,3.7-2.81.17-1.9-1.92-3.7,1.54-5.61l.3-.16c1.11-.58,4.24-2.83,6.18-4.24.21-.15,1.42-1.21,1.58-1.34.43-.43.41-1.23.14-3.68-.34-3-.92-7.6-1-10.46,0-.21.07-.4.11-.59v0a3.8,3.8,0,0,1,.13-.51h0c.41-1.2,1.57-2.71,4-1.54,2.28,1.09,3.89,3.79,4.29,4.51h0s.12.18.39.14a3.94,3.94,0,0,0,3.43-4ZM49.15,31.85l.54,4.86c-.35.86-2.16.9-2.37.21-1-3.05-2.79-7.82-2-8.49,3-2.47,7.4-5.64,12-5.64,0,0,.43-.05.49.55.1,1-2.53,1.21-3.83,1.82a8,8,0,0,0-4.86,6.69m15.32,4.54c-2.26,2.34-6.88,4.34-10.78,3.45C53.47,37,56.77,37.63,59,36.38a7.62,7.62,0,0,0,3.78-4.31c1.86.54,2.15,2.75,1.72,4.32m-.53-10c-1.17.08-1.32-.84-1.52-1.73A3.5,3.5,0,0,1,63,22.36c1.17-.41,1.76.64,1.84,1.5.27.92,0,2.19-.86,2.49"/></g></g></svg>