<svg xmlns="http://www.w3.org/2000/svg" width="120" height="150" viewBox="-7.93 -35 18 75">
    <g>
        <g transform="matrix(0.03 0 0 0.03 4.5 13.29)">
            <path style="stroke: none; stroke-width: 1; stroke-dasharray: none; stroke-linecap: butt; stroke-dashoffset: 0; stroke-linejoin: miter; stroke-miterlimit: 4; fill: rgb(242,116,19); fill-rule: nonzero; opacity: 1;" vector-effect="non-scaling-stroke" transform="translate(-10558.22, -6419.61)" d="M 10796 6407 C 11050 6136 10926 5800 10796 5693 C 10782 6037 10413 6205 10254 6463 C 10199 6554 10158 6650 10178 6802 C 10211 7053 10433 7193 10674 7132 C 10592 7052 10542 6971 10557 6838 C 10582 6643 10678 6542 10796 6407 z" stroke-linecap="round"/>
        </g>
        <g transform="matrix(0.03 0 0 0.03 -4.42 3.64)">
            <path style="stroke: none; stroke-width: 1; stroke-dasharray: none; stroke-linecap: butt; stroke-dashoffset: 0; stroke-linejoin: miter; stroke-miterlimit: 4; fill: rgb(242,116,19); fill-rule: nonzero; opacity: 1;" vector-effect="non-scaling-stroke"  transform=" translate(-10207.6, -6048.69)" d="M 10621 5855 C 10429 6156 10015 6343 10059 6769 C 10074 6916 10192 7129 10339 7160 C 9861 7116 9471 6620 9815 6058 C 9951 5835 10254 5696 10362 5465 C 10462 5264 10377 5003 10154 4941 C 10370 4910 10643 5082 10703 5295 C 10760 5493 10729 5693 10621 5855 z" stroke-linecap="round"/>
        </g>
        <g transform="matrix(0.03 0 0 0.03 14.04 19.77)">
            <path style="stroke: none; stroke-width: 1; stroke-dasharray: none; stroke-linecap: butt; stroke-dashoffset: 0; stroke-linejoin: miter; stroke-miterlimit: 4; fill: rgb(105,173,21); fill-rule: nonzero; opacity: 1;" vector-effect="non-scaling-stroke"  transform=" translate(-10930.66, -6742.5)" d="M 11143 6368 C 11204 6650 11293 7002 10766 7117 C 10867 7019 11052 6810 11083 6561 C 11013 6868 10775 6943 10706 7091 C 10701 7064 10687 7024 10682 7001 C 10597 6577 11057 6592 11143 6368 z" stroke-linecap="round"/>
        </g>
    </g>
</svg>
