<svg width="200" height="100" xmlns="http://www.w3.org/2000/svg" xmlns:xlink="http://www.w3.org/1999/xlink" version="1.1" id="Layer_1" x="0px" y="0px" viewBox="0 0 158 39" style="enable-background:new 0 0 158 39;" xml:space="preserve">
<style type="text/css">
	.st0{fill:#FF0000;}
</style>
    <g>
	<g>
		<g>
			<rect x="89.3" y="0.6" class="st0" width="8.3" height="36.8"/>
            <path class="st0" d="M146.3,0.5h-5.2h-4.8l-11.6,36.8h8.2l2.4-7.9h5.7h5.7l2.3,7.9h8.9L146.3,0.5z M141.1,22.5h-3.8l3.8-14     l0.1-0.4h0.1l3.6,14.4H141.1z"/>
            <path class="st0" d="M102.6,28.4c2.1,1.4,5,2.4,8.4,2.4c2.6,0,5-0.6,5-3.6c0-6.8-14.4-2.5-14.4-15.9c0-8.9,7.2-11.3,13.3-11.3     c2.9,0,5.8,0.5,7.8,1.4L122.2,9c-2.1-1.2-4.5-1.7-6.8-1.7c-2.1,0-5.5,0.2-5.5,3.4c0,6,14.4,2,14.4,15.2c0,9.6-6.6,12.1-13.4,12.1     c-2.8,0-6.4-0.5-9.1-1.6L102.6,28.4z"/>
            <path class="st0" d="M46.3,0.7c-0.9-0.1-1.9-0.1-2.9-0.1h-9.8v36.9h8v-9.4h3.6c0.4,0,0.7,0,1.1,0c8.1-0.4,12.8-5.4,12.8-13.6     C59.1,5.9,55,1.5,46.3,0.7z M46.3,20.9c-0.6,0.1-1.3,0.2-2,0.2h-2.8V7.7h2.8c0.7,0,1.3,0.1,2,0.2C49,8.5,51,10.3,51,14.3     C51,18.5,49,20.4,46.3,20.9z"/>
            <path class="st0" d="M0,0.6v1.2c0,0,2.2-0.4,4.1-0.5C2.4,2,0,2.7,0,2.7v0.8c0,0,2.8-0.6,6.7-1C2.5,4,0,4.7,0,4.7v0.7     c0,0,4.9-0.9,9-1.4C4.9,5.5,0,6.8,0,6.8v0.5c0.1,0,4.8-1.1,10.8-1.8C4.8,7.7,0.1,8.9,0,8.9v0.5c0.1,0,5.8-1.4,12.4-2.1     C5.9,9.7,0.1,11.1,0,11.1v0.4c0.1,0,5.9-1.6,13.7-2.4C6.2,11.7,0.1,13.1,0,13.2v0.5c0.1,0,5.9-1.7,14.7-2.7     C7.2,13.8,0.1,15.3,0,15.3V16c0.1,0,6.2-1.8,15.6-2.9c-8.1,3-15.5,4.5-15.6,4.5v0.8c0.1,0,6.3-2,16.2-3.1C6.6,18.8,0.1,19.9,0,20     v0.8c0.1,0,7-2.1,16.7-3.2c-9,3.3-16.6,4.7-16.7,4.8v0.9c3.3-0.9,9.1-2.4,16.6-3.2C6.6,23.6,0.1,24.7,0,24.7v1     c0.1,0,6.5-2,16.1-3.1C6.8,26.1,0.1,27.3,0,27.3v1c3.6-0.9,7.8-1.9,15.3-2.8C6.3,28.7,0.1,29.9,0,29.9v1c0.1,0,5.3-1.5,13.9-2.5     c-8,2.9-13.8,4.1-13.9,4.1v0.9c0.1,0,4.6-1,11.3-1.9C5.2,33.7,0.1,35,0,35v0.8c0,0,2.7-0.5,7.1-1c-3.5,1.3-7,2.3-7.1,2.4v0.4     h25.8V0.6H0z"/>
		</g>
	</g>
        <g>
		<g>
			<polygon class="st0" points="70.2,30.5 70.2,22.2 82.8,22.2 82.8,15.2 70.2,15.2 70.2,7.6 83.6,7.6 83.6,0.6 62.1,0.6 62.1,37.5      84.1,37.5 84.1,30.5    "/>
		</g>
	</g>
</g>
</svg>