<svg width="200" height="100" xmlns="http://www.w3.org/2000/svg" viewBox="0 0 348.03 68.19"><defs><style>.cls-1{fill:#0071ce;}.cls-2{fill:#54c0e8;}</style></defs><g id="Capa_2" data-name="Capa 2"><g id="Capa_1-2" data-name="Capa 1"><polygon class="cls-1" points="10.77 6.79 0 6.79 0 0.97 27.95 0.97 27.95 6.79 17.18 6.79 17.18 34.93 10.77 34.93 10.77 6.79"/><path class="cls-1" d="M65.6,34.93H58l-9.9-11.35H41.93V34.93H35.52V.92c5.39,0,10.77,0,16.16,0C59.68,1,63.9,6.36,63.9,12.23c0,4.65-2.13,9.36-8.58,10.67L65.6,34.49Zm-23.67-28V17.81h9.75c4.07,0,5.82-2.72,5.82-5.44s-1.79-5.43-5.82-5.43Z"/><rect class="cls-1" x="71.92" y="0.97" width="6.35" height="33.96"/><polygon class="cls-1" points="150.77 0.92 157.17 0.92 157.17 34.93 153.19 34.93 153.19 34.98 135.34 12.03 135.34 34.93 128.94 34.93 128.94 0.97 134.13 0.97 150.77 22.03 150.77 0.92"/><path class="cls-1" d="M191.92,9.27a13,13,0,0,0-8.64-3.4c-7.27,0-11.69,5.53-11.69,12.52,0,5.58,3.25,11.35,11.69,11.35A11.28,11.28,0,0,0,191,27V21h-8.68V15.28h14.55V29.59a16.91,16.91,0,0,1-13.54,6.12c-12.76,0-17.95-8.4-17.95-17.32,0-9.56,6-18.39,17.95-18.39A18,18,0,0,1,195.9,5.19Z"/><path class="cls-1" d="M235.5,1V20.47c0,10.05-6.16,15.19-14.71,15.19-8.14,0-15.08-4.95-15.08-15.19V1h6.35V20.47c0,6.12,3.5,9.37,8.78,9.37s8.3-3.54,8.3-9.37V1Z"/><polygon class="cls-1" points="251.81 0.97 251.81 29.01 269.27 29.01 269.27 34.93 245.4 34.93 245.4 0.97 251.81 0.97"/><path class="cls-1" d="M348,34.93h-7.62l-9.89-11.35h-6.16V34.93H318V.92c5.39,0,10.77,0,16.16,0,8,.05,12.22,5.39,12.22,11.26,0,4.65-2.13,9.36-8.58,10.67L348,34.49Zm-23.67-28V17.81h9.75c4.07,0,5.82-2.72,5.82-5.44s-1.8-5.43-5.82-5.43Z"/><polygon class="cls-1" points="103.19 8.06 91.39 34.93 84.44 34.93 99.69 0.92 106.69 0.92 121.95 34.93 114.95 34.93 103.19 8.06"/><path class="cls-2" d="M97.57,24.94l-2.31,5.25c8.82,3.83,17.79-4.55,28.89-1.89v-6c-10.34-2.12-18.51,4.62-26.58,2.62"/><polygon class="cls-1" points="292.66 8.06 280.86 34.93 273.91 34.93 289.17 0.92 296.16 0.92 311.42 34.93 304.42 34.93 292.66 8.06"/><path class="cls-2" d="M287,24.94l-2.3,5.25c8.81,3.83,17.78-4.55,28.89-1.89v-6c-10.34-2.12-18.52,4.62-26.59,2.62"/><polygon class="cls-1" points="27.83 52.85 29.28 52.85 29.28 62.78 33.15 62.78 33.15 63.89 27.83 63.89 27.83 52.85"/><path class="cls-1" d="M33.71,53.42l3.39-2v1.34l-3.39,1.79Zm1.11,1.72h1.45v8.75H34.82Z"/><path class="cls-1" d="M39.44,62.75a4.64,4.64,0,0,1-1.19-3.28,4.43,4.43,0,0,1,1.19-3.23,3.93,3.93,0,0,1,3-1.24,3.62,3.62,0,0,1,2,.53,3.46,3.46,0,0,1,1.26,1.37V52.1h1.47V63.89H45.64V62.11A3.5,3.5,0,0,1,42.42,64a3.9,3.9,0,0,1-3-1.29m5.33-.85a3.68,3.68,0,0,0,0-4.75,2.81,2.81,0,0,0-2.08-.89,2.87,2.87,0,0,0-2.09.86,3.13,3.13,0,0,0-.87,2.34,3.34,3.34,0,0,0,.88,2.41,2.84,2.84,0,0,0,4.16,0"/><path class="cls-1" d="M53.32,64a4,4,0,0,1-3.06-1.25,4.6,4.6,0,0,1-1.18-3.28,4.48,4.48,0,0,1,1.2-3.27,4.2,4.2,0,0,1,7.31,2.92,5.81,5.81,0,0,1-.06.86h-7a3,3,0,0,0,.82,2.06,2.59,2.59,0,0,0,1.93.76,2.68,2.68,0,0,0,1.51-.4,2.3,2.3,0,0,0,.9-1h1.56a4,4,0,0,1-1.43,1.9,4.14,4.14,0,0,1-2.54.75m2-7.09a2.67,2.67,0,0,0-1.93-.75,2.62,2.62,0,0,0-1.92.74,2.94,2.94,0,0,0-.85,2h5.5a2.75,2.75,0,0,0-.8-2"/><path class="cls-1" d="M61,55.14v1.49A2.73,2.73,0,0,1,63.67,55v1.51h-.39a2.27,2.27,0,0,0-1.69.59,2.77,2.77,0,0,0-.59,2v4.78H59.55V55.14Z"/><path class="cls-1" d="M74.18,64a4,4,0,0,1-3.06-1.25,4.6,4.6,0,0,1-1.18-3.28,4.48,4.48,0,0,1,1.2-3.27,4.2,4.2,0,0,1,7.31,2.92,5.81,5.81,0,0,1-.06.86h-7a3,3,0,0,0,.82,2.06,2.59,2.59,0,0,0,1.93.76,2.68,2.68,0,0,0,1.51-.4,2.3,2.3,0,0,0,.9-1h1.56a4,4,0,0,1-1.42,1.9,4.19,4.19,0,0,1-2.55.75m2-7.09a2.67,2.67,0,0,0-1.93-.75,2.62,2.62,0,0,0-1.92.74,3,3,0,0,0-.85,2h5.5a2.75,2.75,0,0,0-.8-2"/><path class="cls-1" d="M81.87,55.14v1.42A3,3,0,0,1,84.72,55a3.29,3.29,0,0,1,2.42,1,3.67,3.67,0,0,1,1,2.74v5.18H86.68V59a2.84,2.84,0,0,0-.64-2,2.3,2.3,0,0,0-1.76-.68,2.34,2.34,0,0,0-1.77.68,2.84,2.84,0,0,0-.64,2v4.94H80.42V55.14Z"/><path class="cls-1" d="M96.57,62.39a5.84,5.84,0,0,1,0-8.07,5.55,5.55,0,0,1,4-1.58,5.84,5.84,0,0,1,3.07.81,4.76,4.76,0,0,1,2,2.34h-1.75a3.44,3.44,0,0,0-3.3-1.86,4,4,0,0,0-3,1.19,4.28,4.28,0,0,0-1.17,3.14,4.33,4.33,0,0,0,1.17,3.16,4,4,0,0,0,3,1.19,3.93,3.93,0,0,0,2-.48,3.35,3.35,0,0,0,1.34-1.4h1.75a4.82,4.82,0,0,1-2,2.35,5.84,5.84,0,0,1-3.07.81,5.48,5.48,0,0,1-4-1.6"/><path class="cls-1" d="M108.67,62.75a4.6,4.6,0,0,1-1.2-3.28,4.47,4.47,0,0,1,1.19-3.23,4,4,0,0,1,3-1.24,3.6,3.6,0,0,1,1.95.53,3.41,3.41,0,0,1,1.27,1.37V55.14h1.46v8.75h-1.46V62.11a3.46,3.46,0,0,1-1.27,1.39,3.53,3.53,0,0,1-1.95.54,3.88,3.88,0,0,1-3-1.29M114,61.9a3.68,3.68,0,0,0,0-4.75,2.84,2.84,0,0,0-2.09-.89,2.89,2.89,0,0,0-2.09.86,3.13,3.13,0,0,0-.87,2.34,3.39,3.39,0,0,0,.88,2.41,2.85,2.85,0,0,0,4.17,0"/><rect class="cls-1" x="118.88" y="52.1" width="1.45" height="11.79"/><path class="cls-1" d="M126.55,64a4,4,0,0,1-3.06-1.25,5.12,5.12,0,0,1,0-6.55,4.21,4.21,0,0,1,7.32,2.92,5.81,5.81,0,0,1-.06.86h-7a3,3,0,0,0,.82,2.06,2.61,2.61,0,0,0,1.94.76,2.67,2.67,0,0,0,1.5-.4,2.3,2.3,0,0,0,.9-1h1.57a4.07,4.07,0,0,1-1.43,1.9,4.16,4.16,0,0,1-2.54.75m2-7.09a2.69,2.69,0,0,0-1.94-.75,2.62,2.62,0,0,0-1.92.74,2.94,2.94,0,0,0-.84,2h5.49a2.74,2.74,0,0,0-.79-2"/><path class="cls-1" d="M136.38,55.14v1.18h-1.83v7.57h-1.47V56.32H132V55.14h1.13v-.73a2.61,2.61,0,0,1,.77-2.09,3.68,3.68,0,0,1,2.4-.65v1.18a1.91,1.91,0,0,0-1.33.36,1.61,1.61,0,0,0-.37,1.2v.73Z"/><path class="cls-1" d="M138.82,62.75a4.6,4.6,0,0,1-1.2-3.28,4.47,4.47,0,0,1,1.19-3.23,4,4,0,0,1,3-1.24,3.6,3.6,0,0,1,1.95.53A3.41,3.41,0,0,1,145,56.9V55.14h1.46v8.75H145V62.11a3.46,3.46,0,0,1-1.27,1.39,3.53,3.53,0,0,1-1.95.54,3.9,3.9,0,0,1-3-1.29m5.33-.85a3.68,3.68,0,0,0,0-4.75,2.84,2.84,0,0,0-2.09-.89,2.89,2.89,0,0,0-2.09.86,3.13,3.13,0,0,0-.87,2.34,3.39,3.39,0,0,0,.88,2.41,2.85,2.85,0,0,0,4.17,0"/><path class="cls-1" d="M149.64,62.79a5.13,5.13,0,0,1,0-6.55A4,4,0,0,1,152.7,55a4.21,4.21,0,0,1,2.57.73,3.86,3.86,0,0,1,1.4,2.09H155.1a2.26,2.26,0,0,0-.87-1.19,2.62,2.62,0,0,0-1.53-.43,2.51,2.51,0,0,0-2,.86,4.35,4.35,0,0,0,0,4.91,2.51,2.51,0,0,0,2,.87,2.27,2.27,0,0,0,2.4-1.63h1.57a4,4,0,0,1-1.41,2.06,4.14,4.14,0,0,1-2.56.77,4,4,0,0,1-3.06-1.25"/><path class="cls-1" d="M159.36,62.79a5.13,5.13,0,0,1,0-6.55A4,4,0,0,1,162.42,55a4.21,4.21,0,0,1,2.57.73,3.92,3.92,0,0,1,1.4,2.09h-1.56a2.28,2.28,0,0,0-.88-1.19,2.62,2.62,0,0,0-1.53-.43,2.51,2.51,0,0,0-2,.86,4.35,4.35,0,0,0,0,4.91,2.51,2.51,0,0,0,2,.87,2.29,2.29,0,0,0,2.41-1.63h1.56A4,4,0,0,1,165,63.27a4.14,4.14,0,0,1-2.56.77,4,4,0,0,1-3.06-1.25"/><path class="cls-1" d="M169.91,53.45a.93.93,0,0,1-.7.29.91.91,0,0,1-.7-.29,1,1,0,0,1-.28-.7,1,1,0,0,1,.29-.7,1,1,0,0,1,1.39,0,1,1,0,0,1,.28.7.94.94,0,0,1-.28.7m-1.44,1.69h1.45v8.75h-1.45Z"/><path class="cls-1" d="M173.1,62.79a4.49,4.49,0,0,1-1.2-3.26,4.43,4.43,0,0,1,1.26-3.28,4.61,4.61,0,0,1,6.31,0,4.41,4.41,0,0,1,1.26,3.27,4.28,4.28,0,0,1-1.32,3.26A4.44,4.44,0,0,1,176.2,64a4.14,4.14,0,0,1-3.1-1.25m3.1.05a2.93,2.93,0,0,0,2.13-.88,3.28,3.28,0,0,0,.9-2.45,3.36,3.36,0,0,0-.86-2.44,2.83,2.83,0,0,0-2.1-.87,2.73,2.73,0,0,0-2.06.87,3.44,3.44,0,0,0-.83,2.45,3.5,3.5,0,0,0,.8,2.44,2.59,2.59,0,0,0,2,.88m-1.73-9.42,3.39-2v1.33l-3.39,1.79Z"/><path class="cls-1" d="M184.16,55.14v1.42A3,3,0,0,1,187,55a3.27,3.27,0,0,1,2.42,1,3.67,3.67,0,0,1,1,2.74v5.18H189V59a2.89,2.89,0,0,0-.64-2,2.3,2.3,0,0,0-1.76-.68,2.34,2.34,0,0,0-1.77.68,2.84,2.84,0,0,0-.64,2v4.94h-1.45V55.14Z"/><path class="cls-1" d="M202.44,63.36a3.3,3.3,0,0,1-2.09.66,3.06,3.06,0,0,1-2.19-.92,3.38,3.38,0,0,1,0-4.66,3.09,3.09,0,0,1,2.24-.91.8.8,0,0,1,.41.15l-.63-.48a4.33,4.33,0,0,1-1.1-2.51,2.43,2.43,0,0,1,.77-1.83,2.83,2.83,0,0,1,2.09-.76,2.93,2.93,0,0,1,2.09.74,2.36,2.36,0,0,1,.78,1.76,2.55,2.55,0,0,1-.11.74h-1.46a2.71,2.71,0,0,0,.09-.77,1.24,1.24,0,0,0-.39-.88,1.35,1.35,0,0,0-1-.39,1.37,1.37,0,0,0-1,.39,1.46,1.46,0,0,0-.39,1.06,3,3,0,0,0,.74,1.62L207,63.89h-1.76l-1.68-2.23a3.16,3.16,0,0,1-1.14,1.7m-3.32-1.13a1.75,1.75,0,0,0,1.36.61,1.82,1.82,0,0,0,1.37-.61,2.18,2.18,0,0,0,0-2.94,1.77,1.77,0,0,0-1.37-.61,1.79,1.79,0,0,0-1.36.6,2.22,2.22,0,0,0,0,2.95"/><path class="cls-1" d="M221.17,63.89l-.86-2.42h-4.9l-.86,2.42h-1.49l4-11h1.59l4,11Zm-5.35-3.57h4.08l-2-5.7Z"/><path class="cls-1" d="M225.35,62.75a4.6,4.6,0,0,1-1.19-3.28,4.46,4.46,0,0,1,1.18-3.23,4,4,0,0,1,3-1.24,3.58,3.58,0,0,1,1.95.53,3.41,3.41,0,0,1,1.27,1.37V55.14H233v9a3.92,3.92,0,0,1-1.17,2.94,4.07,4.07,0,0,1-2.95,1.13,5,5,0,0,1-3-.82,3,3,0,0,1-1.33-2.17H226a2.17,2.17,0,0,0,1,1.24,3.41,3.41,0,0,0,1.89.5,2.56,2.56,0,0,0,1.89-.75,2.73,2.73,0,0,0,.76-2.07v-2a3.46,3.46,0,0,1-1.27,1.39,3.5,3.5,0,0,1-1.95.54,3.9,3.9,0,0,1-3-1.29m5.33-.85a3.68,3.68,0,0,0,0-4.75,2.92,2.92,0,0,0-4.17,0,3.13,3.13,0,0,0-.87,2.34,3.38,3.38,0,0,0,.87,2.41,2.81,2.81,0,0,0,2.09.92,2.78,2.78,0,0,0,2.08-.89"/><path class="cls-1" d="M241.71,55.14h1.45v8.75h-1.45v-1.4A3,3,0,0,1,238.86,64a3.33,3.33,0,0,1-2.42-1,3.66,3.66,0,0,1-1-2.73v-5.2h1.43v5a2.83,2.83,0,0,0,.65,2,2.59,2.59,0,0,0,3.52,0,2.83,2.83,0,0,0,.64-2Z"/><path class="cls-1" d="M246.34,62.75a4.6,4.6,0,0,1-1.2-3.28,4.47,4.47,0,0,1,1.19-3.23,4,4,0,0,1,3-1.24,3.6,3.6,0,0,1,2,.53,3.41,3.41,0,0,1,1.27,1.37V55.14H254v8.75h-1.46V62.11a3.46,3.46,0,0,1-1.27,1.39,3.53,3.53,0,0,1-2,.54,3.88,3.88,0,0,1-3-1.29m5.33-.85a3.68,3.68,0,0,0,0-4.75,2.84,2.84,0,0,0-2.09-.89,2.89,2.89,0,0,0-2.09.86,3.13,3.13,0,0,0-.87,2.34,3.34,3.34,0,0,0,.88,2.41,2.85,2.85,0,0,0,4.17,0"/><path class="cls-1" d="M262.53,62.39a5.81,5.81,0,0,1,0-8.07,5.51,5.51,0,0,1,4-1.58,5.81,5.81,0,0,1,3.06.81,4.83,4.83,0,0,1,2,2.34h-1.75a3.45,3.45,0,0,0-3.3-1.86,4,4,0,0,0-3,1.19,4.28,4.28,0,0,0-1.17,3.14,4.33,4.33,0,0,0,1.17,3.16,4,4,0,0,0,3,1.19,4,4,0,0,0,2-.48,3.42,3.42,0,0,0,1.34-1.4h1.75a4.9,4.9,0,0,1-2,2.35,5.81,5.81,0,0,1-3.06.81,5.45,5.45,0,0,1-4-1.6"/><path class="cls-1" d="M274.64,62.75a4.6,4.6,0,0,1-1.2-3.28,4.47,4.47,0,0,1,1.19-3.23,4,4,0,0,1,3-1.24,3.6,3.6,0,0,1,1.95.53,3.41,3.41,0,0,1,1.27,1.37V55.14h1.46v8.75h-1.46V62.11a3.46,3.46,0,0,1-1.27,1.39,3.53,3.53,0,0,1-1.95.54,3.88,3.88,0,0,1-3-1.29M280,61.9a3.68,3.68,0,0,0,0-4.75,2.84,2.84,0,0,0-2.09-.89,2.89,2.89,0,0,0-2.09.86,3.13,3.13,0,0,0-.87,2.34,3.34,3.34,0,0,0,.88,2.41,2.85,2.85,0,0,0,4.17,0"/><rect class="cls-1" x="284.83" y="52.1" width="1.45" height="11.79"/><path class="cls-1" d="M290.27,53.45a.91.91,0,0,1-.7.29.88.88,0,0,1-.69-.29.94.94,0,0,1-.28-.7,1,1,0,0,1,.28-.7,1,1,0,0,1,.7-.28.94.94,0,0,1,.69.28,1,1,0,0,1,.29.7,1,1,0,0,1-.29.7m-1.44,1.69h1.46v8.75h-1.46Z"/><path class="cls-1" d="M296.49,64a4,4,0,0,1-3.06-1.25,4.55,4.55,0,0,1-1.18-3.28,4.48,4.48,0,0,1,1.19-3.27,4.21,4.21,0,0,1,7.32,2.92,5.76,5.76,0,0,1-.07.86h-7a3,3,0,0,0,.82,2.06,2.6,2.6,0,0,0,1.94.76,2.67,2.67,0,0,0,1.5-.4,2.3,2.3,0,0,0,.9-1h1.56a4,4,0,0,1-1.42,1.9,4.16,4.16,0,0,1-2.54.75m2-7.09a2.69,2.69,0,0,0-1.94-.75,2.62,2.62,0,0,0-1.92.74,2.94,2.94,0,0,0-.84,2h5.49a2.74,2.74,0,0,0-.79-2"/><path class="cls-1" d="M304.17,55.14v1.42A3,3,0,0,1,307,55a3.27,3.27,0,0,1,2.42,1,3.67,3.67,0,0,1,1,2.74v5.18H309V59a2.84,2.84,0,0,0-.64-2,2.3,2.3,0,0,0-1.76-.68,2.34,2.34,0,0,0-1.77.68,2.84,2.84,0,0,0-.64,2v4.94h-1.45V55.14Z"/><path class="cls-1" d="M315.75,62.71H317v1.18h-1.47a2,2,0,0,1-2.28-2.24V56.32h-1.13V55.14h1.13V53h1.47v2.16h2.26v1.18h-2.26v5.33a1.18,1.18,0,0,0,.24.83,1.22,1.22,0,0,0,.84.23"/><path class="cls-1" d="M322.35,64a4,4,0,0,1-3.06-1.25,5.12,5.12,0,0,1,0-6.55,4.21,4.21,0,0,1,7.32,2.92,4.68,4.68,0,0,1-.07.86h-7a3,3,0,0,0,.82,2.06,2.61,2.61,0,0,0,1.94.76,2.64,2.64,0,0,0,1.5-.4,2.3,2.3,0,0,0,.9-1h1.57a4.07,4.07,0,0,1-1.43,1.9,4.16,4.16,0,0,1-2.54.75m2-7.09a2.69,2.69,0,0,0-1.94-.75,2.62,2.62,0,0,0-1.92.74,2.94,2.94,0,0,0-.84,2h5.49a2.74,2.74,0,0,0-.79-2"/></g></g></svg>
